<mxfile host="app.diagrams.net" modified="2024-05-23T08:37:41.640Z" agent="Mozilla/5.0 (Windows NT 10.0; Win64; x64) AppleWebKit/537.36 (KHTML, like Gecko) Chrome/125.0.0.0 Safari/537.36" version="24.3.1" etag="OC1NlVPmGUidp57skI4u" type="github">
  <diagram name="PÃ¡gina-1" id="aTUfhR1kU9g95k_4AUnx">
    <mxGraphModel>
      <root>
        <mxCell id="0" />
        <mxCell id="1" parent="0" />
      </root>
    </mxGraphModel>
  </diagram>
</mxfile>
